HIERARCHY
ROOT Hips
{
	OFFSET 0.00000 0.00000 0.00000
	CHANNELS 6 Xposition Yposition Zposition Zrotation Yrotation Xrotation 
	JOINT LHipJoint
	{
		OFFSET 0 0 0
		CHANNELS 3 Zrotation Yrotation Xrotation
		JOINT LeftUpLeg
		{
			OFFSET 1.42489 -1.84941 0.69647
			CHANNELS 3 Zrotation Yrotation Xrotation
			JOINT LeftLeg
			{
				OFFSET 2.44443 -6.71602 0.00000
				CHANNELS 3 Zrotation Yrotation Xrotation
				JOINT LeftFoot
				{
					OFFSET 2.62838 -7.22137 0.00000
					CHANNELS 3 Zrotation Yrotation Xrotation
					JOINT LeftToeBase
					{
						OFFSET 0.24036 -0.66037 2.29953
						CHANNELS 3 Zrotation Yrotation Xrotation
						End Site
						{
							OFFSET 0.00000 -0.00000 1.19837
						}
					}
				}
			}
		}
	}
	JOINT RHipJoint
	{
		OFFSET 0 0 0
		CHANNELS 3 Zrotation Yrotation Xrotation
		JOINT RightUpLeg
		{
			OFFSET -1.37055 -1.84941 0.69647
			CHANNELS 3 Zrotation Yrotation Xrotation
			JOINT RightLeg
			{
				OFFSET -2.54834 -7.00152 0.00000
				CHANNELS 3 Zrotation Yrotation Xrotation
				JOINT RightFoot
				{
					OFFSET -2.65692 -7.29983 0.00000
					CHANNELS 3 Zrotation Yrotation Xrotation
					JOINT RightToeBase
					{
						OFFSET -0.18839 -0.51760 2.29390
						CHANNELS 3 Zrotation Yrotation Xrotation
						End Site
						{
							OFFSET -0.00000 -0.00000 1.18261
						}
					}
				}
			}
		}
	}
	JOINT LowerBack
	{
		OFFSET 0 0 0
		CHANNELS 3 Zrotation Yrotation Xrotation
		JOINT Spine
		{
			OFFSET 0.05220 2.15489 0.05011
			CHANNELS 3 Zrotation Yrotation Xrotation
			JOINT Spine1
			{
				OFFSET -0.07653 2.14219 -0.05668
				CHANNELS 3 Zrotation Yrotation Xrotation
				JOINT Neck
				{
					OFFSET 0 0 0
					CHANNELS 3 Zrotation Yrotation Xrotation
					JOINT Neck1
					{
						OFFSET 0.01370 1.58638 0.01447
						CHANNELS 3 Zrotation Yrotation Xrotation
						JOINT Head
						{
							OFFSET 0.23548 1.54190 -0.21747
							CHANNELS 3 Zrotation Yrotation Xrotation
							End Site
							{
								OFFSET 0.07132 1.59823 -0.08163
							}
						}
					}
				}
				JOINT LeftShoulder
				{
					OFFSET 0 0 0
					CHANNELS 3 Zrotation Yrotation Xrotation
					JOINT LeftArm
					{
						OFFSET 3.47056 1.45357 -0.58896
						CHANNELS 3 Zrotation Yrotation Xrotation
						JOINT LeftForeArm
						{
							OFFSET 5.19069 -0.00000 0.00000
							CHANNELS 3 Zrotation Yrotation Xrotation
							JOINT LeftHand
							{
								OFFSET 3.30016 -0.00000 0.00000
								CHANNELS 3 Zrotation Yrotation Xrotation
								JOINT LeftFingerBase
								{
									OFFSET 0 0 0
									CHANNELS 3 Zrotation Yrotation Xrotation
									JOINT LeftHandIndex1
									{
										OFFSET 0.70770 -0.00000 0.00000
										CHANNELS 3 Zrotation Yrotation Xrotation
										End Site
										{
											OFFSET 0.57056 -0.00000 0.00000
										}
									}
								}
								JOINT LThumb
								{
									OFFSET 0 0 0
									CHANNELS 3 Zrotation Yrotation Xrotation
									End Site
									{
										OFFSET 0.57928 -0.00000 0.57928
									}
								}
							}
						}
					}
				}
				JOINT RightShoulder
				{
					OFFSET 0 0 0
					CHANNELS 3 Zrotation Yrotation Xrotation
					JOINT RightArm
					{
						OFFSET -2.89018 2.03305 -0.26731
						CHANNELS 3 Zrotation Yrotation Xrotation
						JOINT RightForeArm
						{
							OFFSET -5.23924 -0.00000 0.00000
							CHANNELS 3 Zrotation Yrotation Xrotation
							JOINT RightHand
							{
								OFFSET -3.32953 -0.00000 0.00000
								CHANNELS 3 Zrotation Yrotation Xrotation
								JOINT RightFingerBase
								{
									OFFSET 0 0 0
									CHANNELS 3 Zrotation Yrotation Xrotation
									JOINT RightHandIndex1
									{
										OFFSET -0.60741 -0.00000 0.00000
										CHANNELS 3 Zrotation Yrotation Xrotation
										End Site
										{
											OFFSET -0.48971 -0.00000 0.00000
										}
									}
								}
								JOINT RThumb
								{
									OFFSET 0 0 0
									CHANNELS 3 Zrotation Yrotation Xrotation
									End Site
									{
										OFFSET -0.49719 -0.00000 0.49719
									}
								}
							}
						}
					}
				}
			}
		}
	}
}
MOTION
Frames: 11
Frame Time: .0083333
25.5401 17.5799 -29.4229 0 0 0 0 0 0 -21 0 0 0 0 0 0 0 0 0 0 0 0 0 0 21 0 0 0 0 0 0 0 0 0 0 0 0 0 0 0 0 0 0 0 0 0 0 -16 0 0 21 0 0 11 0 0 0 -8 0 0 0 0 0 0 0 0 0 0 0 0 0 0 0 0 0 0 0 0 8 0 0 0 0 0 0 0 0 0 0 0 0 0 0 0 0 0
25.5401 17.5799 -29.4229 -3.2812 -32.0437 3.7685 0.0000 0.0000 0.0000 -17.8212 3.0353 -10.8367 2.0325 8.9335 25.5875 1.2396 2.0049 -21.8433 0.0944 -1.9816 -5.4547 0.0000 0.0000 0.0000 22.5991 3.2733 -13.6039 -3.1851 -10.9889 32.2424 -1.5465 -1.0151 -23.8967 -0.0101 -0.6504 1.7873 3.8867 -2.1632 -2.3419 -1.2460 -3.0402 3.7759 -3.6658 -1.3409 4.9582 -5.6566 -5.2047 -10.4489 12.2653 -7.1765 4.3279 4.2028 -3.1382 3.6685 0.0000 -0.0000 0.0000 -79.7541 -4.6102 51.3919 54.2619 -54.5761 -29.6136 -0.0000 0.0000 -66.9696 29.3272 16.2424 8.9302 -7.1250 0.0000 -0.0000 1.5293 48.4511 0.1302 0.0000 -0.0000 0.0000 74.4866 -11.1513 47.0605 -43.5305 50.0279 -21.1065 0.0000 -0.0000 -3.2651 -0.2154 -14.8774 0.0553 7.1250 -0.0000 -0.0000 24.6537 -43.3750 1.0577
25.5419 17.5798 -29.4243 -3.3092 -32.0457 3.8241 0.0000 0.0000 0.0000 -17.7987 3.0533 -10.9222 2.0382 8.9452 25.6240 1.2381 1.9880 -21.8230 0.0980 -2.0191 -5.5584 0.0000 0.0000 0.0000 22.6218 3.3206 -13.6488 -3.1856 -10.9896 32.2448 -1.5444 -1.0443 -23.8917 -0.0107 -0.6689 1.8382 3.8686 -2.1705 -2.2066 -1.1887 -3.0449 3.7167 -3.5876 -1.3497 4.8220 -5.7872 -5.2079 -10.3281 12.2761 -7.1672 4.3292 4.2307 -3.1392 3.6530 -0.0000 0.0000 0.0000 -79.8656 -4.5788 51.2932 54.2685 -54.5784 -29.6190 -0.0000 0.0000 -66.7434 29.4104 15.7232 8.6853 -7.1250 0.0000 -0.0000 1.6740 47.8820 0.1191 -0.0000 0.0000 0.0000 74.3759 -11.2094 47.0656 -43.6630 50.0964 -21.2081 0.0000 -0.0000 -3.4531 0.0092 -15.0107 -0.0024 7.1250 -0.0000 -0.0000 24.8971 -43.4716 1.0060
25.5450 17.5799 -29.4255 -3.2876 -32.0423 3.8508 0.0000 0.0000 0.0000 -17.8265 3.0513 -10.9846 2.0376 8.9441 25.6205 1.2355 1.9766 -21.7956 0.0956 -1.9945 -5.4904 0.0000 0.0000 0.0000 22.5909 3.3481 -13.7072 -3.1895 -10.9957 32.2655 -1.5413 -1.0669 -23.8772 -0.0107 -0.6694 1.8394 3.9726 -2.1449 -2.2254 -1.2817 -3.0137 3.7750 -3.7439 -1.3259 4.8874 -5.6352 -5.2307 -10.4857 12.3023 -7.2144 4.2985 4.2072 -3.1547 3.6702 0.0000 0.0000 0.0000 -79.6917 -4.7615 51.3912 54.2315 -54.5658 -29.5888 -0.0000 0.0000 -66.7400 29.3264 15.8808 8.7393 -7.1250 0.0000 -0.0000 1.5733 48.0457 0.1182 0.0000 0.0000 0.0000 74.5506 -11.1411 46.9466 -43.7965 50.1651 -21.3105 0.0000 -0.0000 -3.6311 0.2463 -15.2602 -0.0648 7.1250 -0.0000 -0.0000 25.1987 -43.6716 0.8861
25.5480 17.5807 -29.4273 -3.2340 -32.0438 3.8513 0.0000 0.0000 0.0000 -17.8929 2.9672 -10.9961 2.0384 8.9455 25.6250 1.2352 2.0408 -21.8214 0.0972 -2.0101 -5.5337 0.0000 0.0000 0.0000 22.5272 3.3681 -13.7588 -3.1934 -11.0017 32.2856 -1.5448 -1.0261 -23.8882 -0.0122 -0.7128 1.9588 3.8549 -2.2893 -2.0989 -1.1601 -3.1982 3.6369 -3.5502 -1.4323 4.6656 -6.0080 -5.1064 -10.0481 12.3234 -6.9999 4.1953 4.3007 -3.0715 3.5606 0.0000 -0.0000 0.0000 -80.0000 -4.4346 50.9518 54.2939 -54.5870 -29.6396 -0.0000 0.0000 -66.5415 29.1580 17.1814 9.3587 -7.1250 0.0000 -0.0000 1.2361 49.4730 0.1364 0.0000 -0.0000 0.0000 74.1081 -11.2863 47.4053 -44.0094 50.2738 -21.4741 0.0000 -0.0000 -3.8805 0.4362 -15.3893 -0.1157 7.1250 -0.0000 -0.0000 25.4124 -43.7672 0.8302
25.5505 17.5813 -29.4298 -3.2202 -32.0318 3.9020 0.0000 0.0000 0.0000 -17.9080 2.9449 -11.0794 2.0382 8.9451 25.6239 1.2325 2.0257 -21.7926 0.0962 -2.0005 -5.5071 0.0000 0.0000 0.0000 22.5120 3.4302 -13.8346 -3.1981 -11.0090 32.3102 -1.5416 -1.0811 -23.8845 -0.0112 -0.6823 1.8750 3.8389 -2.2978 -2.0307 -1.1448 -3.2064 3.6192 -3.5218 -1.4391 4.6091 -5.9970 -5.0987 -10.1896 12.3288 -6.9916 4.2474 4.2982 -3.0608 3.5987 -0.0000 0.0000 0.0000 -80.0303 -4.4451 50.9770 54.2892 -54.5854 -29.6359 -0.0000 0.0000 -66.5597 29.3627 16.1752 8.9075 -7.1250 0.0000 -0.0000 1.5726 48.3815 0.1312 -0.0000 0.0000 0.0000 74.0817 -11.2611 47.3864 -44.0613 50.3002 -21.5141 0.0000 -0.0000 -3.8717 0.6467 -15.3586 -0.1713 7.1250 -0.0000 -0.0000 25.5783 -43.7161 0.8712
25.5531 17.5818 -29.4325 -3.1993 -32.0543 3.9469 0.0000 0.0000 0.0000 -17.9363 2.9320 -11.1552 2.0379 8.9446 25.6220 1.2301 2.0376 -21.7775 0.0962 -2.0000 -5.5057 0.0000 0.0000 0.0000 22.4840 3.4979 -13.9110 -3.2036 -11.0175 32.3390 -1.5399 -1.0962 -23.8774 -0.0111 -0.6804 1.8697 3.8113 -2.3172 -1.9535 -1.1192 -3.2283 3.5821 -3.4756 -1.4542 4.5272 -6.0528 -5.0779 -10.1863 12.3317 -6.9554 4.2401 4.3112 -3.0440 3.5946 -0.0000 -0.0000 0.0000 -80.0964 -4.4137 50.9096 54.2940 -54.5871 -29.6398 -0.0000 0.0000 -66.5169 29.3782 16.1704 8.9106 -7.1250 0.0000 -0.0000 1.5884 48.3788 0.1324 -0.0000 -0.0000 0.0000 73.9889 -11.2764 47.4531 -44.1755 50.3581 -21.6020 0.0000 -0.0000 -3.9603 0.8302 -15.4292 -0.2209 7.1250 -0.0000 -0.0000 25.7630 -43.7594 0.8488
25.5558 17.5824 -29.4358 -3.1761 -32.0941 3.9992 0.0000 0.0000 0.0000 -17.9668 2.9318 -11.2509 2.0391 8.9470 25.6297 1.2282 2.0460 -21.7650 0.0961 -1.9993 -5.5036 0.0000 0.0000 0.0000 22.4531 3.5793 -13.9954 -3.2090 -11.0259 32.3672 -1.5374 -1.1088 -23.8630 -0.0109 -0.6739 1.8521 3.7825 -2.3182 -1.8791 -1.1022 -3.2255 3.5531 -3.4370 -1.4564 4.4571 -6.0763 -5.0692 -10.2235 12.3276 -6.9383 4.2368 4.3144 -3.0349 3.5987 0.0000 0.0000 0.0000 -80.1415 -4.4115 50.8871 54.2919 -54.5864 -29.6381 -0.0000 0.0000 -66.5076 29.4099 16.1260 8.8984 -7.1250 0.0000 -0.0000 1.6250 48.3338 0.1337 0.0000 0.0000 0.0000 73.9270 -11.2814 47.4825 -44.2778 50.4097 -21.6808 0.0000 -0.0000 -4.0215 0.9901 -15.4682 -0.2641 7.1250 -0.0000 -0.0000 25.9146 -43.7767 0.8426
25.5585 17.5830 -29.4395 -3.1538 -32.1450 4.0584 0.0000 0.0000 0.0000 -17.9968 2.9392 -11.3575 2.0403 8.9496 25.6378 1.2261 2.0557 -21.7514 0.0963 -2.0008 -5.5079 0.0000 0.0000 0.0000 22.4224 3.6720 -14.0866 -3.2147 -11.0348 32.3973 -1.5347 -1.1193 -23.8464 -0.0107 -0.6690 1.8385 3.7466 -2.3000 -1.7915 -1.0867 -3.1965 3.5260 -3.3941 -1.4458 4.3840 -6.0728 -5.0765 -10.2931 12.3098 -6.9450 4.2420 4.3065 -3.0363 3.6115 -0.0000 -0.0000 0.0000 -80.1776 -4.4328 50.9132 54.2821 -54.5830 -29.6301 -0.0000 0.0000 -66.5180 29.4548 16.0011 8.8483 -7.1250 0.0000 -0.0000 1.6842 48.2011 0.1330 -0.0000 -0.0000 0.0000 73.8878 -11.2882 47.4671 -44.3701 50.4562 -21.7519 0.0000 -0.0000 -4.0611 1.1239 -15.4838 -0.3001 7.1250 -0.0000 -0.0000 26.0343 -43.7758 0.8478
25.5612 17.5837 -29.4437 -3.1363 -32.2080 4.1268 0.0000 0.0000 0.0000 -18.0227 2.9583 -11.4783 2.0421 8.9532 25.6489 1.2239 2.0642 -21.7362 0.0965 -2.0036 -5.5157 0.0000 0.0000 0.0000 22.3956 3.7756 -14.1848 -3.2206 -11.0438 32.4279 -1.5312 -1.1303 -23.8243 -0.0105 -0.6615 1.8178 3.7216 -2.2601 -1.7063 -1.0843 -3.1386 3.5113 -3.3703 -1.4196 4.3264 -6.0325 -5.1008 -10.3892 12.2861 -6.9779 4.2422 4.2881 -3.0496 3.6282 -0.0000 0.0000 0.0000 -80.1805 -4.4964 50.9939 54.2624 -54.5763 -29.6140 -0.0000 0.0000 -66.5520 29.5187 15.7751 8.7508 -7.1250 0.0000 -0.0000 1.7734 47.9574 0.1294 -0.0000 0.0000 0.0000 73.8945 -11.2835 47.3994 -44.4501 50.4962 -21.8137 0.0000 -0.0000 -4.0851 1.2307 -15.4867 -0.3287 7.1250 -0.0000 -0.0000 26.1259 -43.7665 0.8577
25.5640 17.5843 -29.4483 -3.1197 -32.2821 4.2010 0.0000 0.0000 0.0000 -18.0485 2.9861 -11.6094 2.0441 8.9574 25.6622 1.2216 2.0731 -21.7209 0.0969 -2.0078 -5.5271 0.0000 0.0000 0.0000 22.3688 3.8882 -14.2874 -3.2263 -11.0526 32.4576 -1.5277 -1.1369 -23.7998 -0.0104 -0.6590 1.8109 3.6929 -2.2124 -1.6136 -1.0816 -3.0700 3.4946 -3.3433 -1.3883 4.2635 -5.9860 -5.1290 -10.4837 12.2565 -7.0161 4.2381 4.2665 -3.0659 3.6433 0.0000 -0.0000 0.0000 -80.1818 -4.5681 51.0910 54.2354 -54.5671 -29.5920 -0.0000 0.0000 -66.5975 29.5868 15.5394 8.6488 -7.1250 0.0000 -0.0000 1.8668 47.7031 0.1245 0.0000 -0.0000 0.0000 73.9037 -11.2848 47.3269 -44.5303 50.5363 -21.8755 0.0000 -0.0000 -4.1084 1.3156 -15.4811 -0.3512 7.1250 -0.0000 -0.0000 26.1954 -43.7520 0.8705
